<?xml version="1.0" encoding="utf-8" ?>
<svg baseProfile="full" height="1024" version="1.1" width="1024" xmlns="http://www.w3.org/2000/svg" xmlns:ev="http://www.w3.org/2001/xml-events" xmlns:xlink="http://www.w3.org/1999/xlink"><defs /><path d="M 218,127 L 217,128 L 209,128 L 208,129 L 202,129 L 201,130 L 198,130 L 197,131 L 194,131 L 193,132 L 191,132 L 190,133 L 187,133 L 186,134 L 185,134 L 184,135 L 182,135 L 181,136 L 179,136 L 178,137 L 177,137 L 176,138 L 174,138 L 173,139 L 172,139 L 171,140 L 170,140 L 169,141 L 168,141 L 167,142 L 166,142 L 165,143 L 164,143 L 163,144 L 162,144 L 160,146 L 159,146 L 158,147 L 157,147 L 155,149 L 154,149 L 152,151 L 151,151 L 148,154 L 147,154 L 143,158 L 142,158 L 127,173 L 127,174 L 126,175 L 125,175 L 125,176 L 123,178 L 123,179 L 120,182 L 120,183 L 118,185 L 118,186 L 116,188 L 116,189 L 114,191 L 114,192 L 113,193 L 113,194 L 112,195 L 112,196 L 111,197 L 111,198 L 110,199 L 110,200 L 109,201 L 109,202 L 108,203 L 108,204 L 107,205 L 107,206 L 106,207 L 106,209 L 105,210 L 105,211 L 104,212 L 104,214 L 103,215 L 103,217 L 102,218 L 102,220 L 101,221 L 101,224 L 100,225 L 100,228 L 99,229 L 99,233 L 98,234 L 98,238 L 97,239 L 97,246 L 96,247 L 97,248 L 97,250 L 96,251 L 96,638 L 97,639 L 97,640 L 96,641 L 96,642 L 97,643 L 97,650 L 98,651 L 98,656 L 99,657 L 99,660 L 100,661 L 100,664 L 101,665 L 101,667 L 102,668 L 102,671 L 103,672 L 103,674 L 104,675 L 104,677 L 105,678 L 105,679 L 106,680 L 106,682 L 107,683 L 107,684 L 108,685 L 108,687 L 109,688 L 109,689 L 110,690 L 110,691 L 111,692 L 111,693 L 112,694 L 112,695 L 113,696 L 113,697 L 115,699 L 115,700 L 116,701 L 116,702 L 118,704 L 118,705 L 120,707 L 120,708 L 122,710 L 122,711 L 125,714 L 125,715 L 128,718 L 128,719 L 144,735 L 145,735 L 149,739 L 150,739 L 152,741 L 153,741 L 156,744 L 157,744 L 159,746 L 160,746 L 161,747 L 162,747 L 164,749 L 165,749 L 166,750 L 167,750 L 168,751 L 169,751 L 170,752 L 171,752 L 172,753 L 173,753 L 174,754 L 175,754 L 176,755 L 177,755 L 178,756 L 180,756 L 181,757 L 182,757 L 183,758 L 185,758 L 186,759 L 188,759 L 189,760 L 191,760 L 192,761 L 194,761 L 195,762 L 198,762 L 199,763 L 202,763 L 203,764 L 207,764 L 208,765 L 213,765 L 214,766 L 222,766 L 223,767 L 270,767 L 274,771 L 274,772 L 275,773 L 275,900 L 276,901 L 276,909 L 277,910 L 277,912 L 278,913 L 278,914 L 279,915 L 279,916 L 281,918 L 281,919 L 286,924 L 287,924 L 288,925 L 289,925 L 291,927 L 293,927 L 294,928 L 298,928 L 299,929 L 306,929 L 307,928 L 310,928 L 311,927 L 313,927 L 314,926 L 315,926 L 317,924 L 318,924 L 321,921 L 322,921 L 469,774 L 470,774 L 472,772 L 473,772 L 474,771 L 475,771 L 476,770 L 478,770 L 479,769 L 480,769 L 481,768 L 485,768 L 486,767 L 802,767 L 803,766 L 812,766 L 813,765 L 818,765 L 819,764 L 822,764 L 823,763 L 826,763 L 827,762 L 830,762 L 831,761 L 833,761 L 834,760 L 837,760 L 838,759 L 839,759 L 840,758 L 842,758 L 843,757 L 844,757 L 845,756 L 847,756 L 848,755 L 849,755 L 850,754 L 851,754 L 852,753 L 853,753 L 854,752 L 855,752 L 856,751 L 857,751 L 859,749 L 860,749 L 861,748 L 862,748 L 863,747 L 864,747 L 866,745 L 867,745 L 870,742 L 871,742 L 874,739 L 875,739 L 877,737 L 878,737 L 896,719 L 896,718 L 900,714 L 900,713 L 902,711 L 902,710 L 905,707 L 905,706 L 907,704 L 907,703 L 908,702 L 908,701 L 910,699 L 910,698 L 911,697 L 911,696 L 912,695 L 912,694 L 913,693 L 913,692 L 914,691 L 914,690 L 915,689 L 915,688 L 916,687 L 916,685 L 917,684 L 917,683 L 918,682 L 918,680 L 919,679 L 919,677 L 920,676 L 920,674 L 921,673 L 921,671 L 922,670 L 922,667 L 923,666 L 923,664 L 924,663 L 924,659 L 925,658 L 925,654 L 926,653 L 926,646 L 927,645 L 927,246 L 926,245 L 926,238 L 925,237 L 925,232 L 924,231 L 924,227 L 923,226 L 923,224 L 922,223 L 922,220 L 921,219 L 921,217 L 920,216 L 920,214 L 919,213 L 919,211 L 918,210 L 918,208 L 917,207 L 917,206 L 916,205 L 916,204 L 915,203 L 915,202 L 914,201 L 914,200 L 913,199 L 913,198 L 912,197 L 912,195 L 910,193 L 910,192 L 909,191 L 909,190 L 907,188 L 907,187 L 906,186 L 906,185 L 904,183 L 904,182 L 901,179 L 901,178 L 897,174 L 897,173 L 881,157 L 880,157 L 877,154 L 876,154 L 873,151 L 872,151 L 870,149 L 869,149 L 867,147 L 866,147 L 865,146 L 864,146 L 862,144 L 861,144 L 860,143 L 859,143 L 858,142 L 857,142 L 856,141 L 855,141 L 854,140 L 853,140 L 852,139 L 851,139 L 850,138 L 848,138 L 847,137 L 846,137 L 845,136 L 843,136 L 842,135 L 841,135 L 840,134 L 838,134 L 837,133 L 834,133 L 833,132 L 831,132 L 830,131 L 826,131 L 825,130 L 822,130 L 821,129 L 815,129 L 814,128 L 805,128 L 804,127 Z" fill="none" stroke="#006600" stroke-width="2" /></svg>