<svg version="1.1" id="Layer_1" xmlns="http://www.w3.org/2000/svg" xmlns:xlink="http://www.w3.org/1999/xlink" x="0px" y="0px"
	 width="100%" viewBox="0 0 512 512" enable-background="new 0 0 512 512" xml:space="preserve">
<path fill="#000000" opacity="1.000000" stroke="none" 
	d="
M513.000000,139.000000 
	C513.000000,263.624115 513.000000,388.248260 513.000000,512.936157 
	C342.434143,512.936157 171.868240,512.936157 1.000000,512.936157 
	C1.000000,388.643494 1.000000,264.286774 1.346106,139.493347 
	C2.570209,140.230499 3.529598,141.352600 4.313639,142.586151 
	C12.382827,155.281830 30.068638,158.494263 41.686256,148.705048 
	C49.903938,141.780670 57.213005,133.788406 65.088089,126.444870 
	C81.805649,110.855698 100.492172,97.986816 120.602814,87.213669 
	C138.806732,77.461937 157.806259,69.619041 177.699493,63.909275 
	C198.852570,57.837910 220.434021,54.238621 242.341873,53.175640 
	C254.596252,52.581055 266.939301,53.458817 279.227905,54.001446 
	C302.763550,55.040710 325.586273,60.114235 347.837952,67.519836 
	C379.620239,78.097328 409.067200,93.345650 434.972321,114.700882 
	C446.713409,124.379814 457.621399,135.132080 468.375183,145.927490 
	C478.227142,155.817535 494.654785,156.744553 503.302246,149.127670 
	C506.796997,146.049423 509.782654,142.393188 513.000000,139.000000 
M349.349518,120.131767 
	C325.511963,109.822960 300.456512,103.928627 274.705811,102.355804 
	C258.545807,101.368759 242.161240,102.726990 225.960861,104.052620 
	C203.110901,105.922386 181.365509,112.754089 160.486130,121.902855 
	C130.316040,135.122543 103.919579,153.916046 81.455009,178.086334 
	C76.089142,183.859650 71.370979,190.062256 71.029427,198.445129 
	C70.629669,208.256592 77.321846,219.409103 85.560791,222.705780 
	C97.278976,227.394608 107.919678,224.575180 116.956367,215.728333 
	C126.989861,205.905563 137.044327,195.887024 148.270828,187.542938 
	C176.122330,166.842346 207.949783,155.699936 242.434052,153.213989 
	C264.864014,151.597046 287.198090,153.368851 309.021088,159.909424 
	C336.346008,168.098984 360.869598,181.134186 381.900940,200.466095 
	C387.999054,206.071442 393.541901,212.276703 399.554626,217.979935 
	C409.589600,227.498398 426.395874,227.734344 435.571381,217.658569 
	C444.401337,207.962265 446.745850,194.584351 436.597351,183.365540 
	C427.167847,172.941559 417.001648,163.035507 406.235077,154.003754 
	C389.379608,139.864182 370.505402,128.744705 349.349518,120.131767 
M192.569778,280.111877 
	C195.162537,277.789276 197.754303,275.465576 200.348206,273.144257 
	C228.168823,248.247177 273.624634,244.986618 304.460693,266.480713 
	C313.463684,272.756226 321.090546,281.056702 329.108093,288.681427 
	C337.629364,296.785156 349.026886,298.192474 359.814850,292.041199 
	C369.148071,286.719421 373.699493,275.374023 371.451660,264.710541 
	C369.641083,256.121185 363.463989,250.640579 358.064941,244.729767 
	C345.695129,231.187378 330.742645,221.083572 314.049652,213.530289 
	C288.178741,201.824158 261.094452,199.156174 233.322769,203.494293 
	C210.264114,207.096191 189.176727,216.046188 171.289764,231.094849 
	C161.849854,239.036819 152.955246,248.021667 145.519409,257.828430 
	C139.368118,265.941010 140.421997,276.054260 146.267029,284.524506 
	C152.396423,293.406769 161.084915,297.128662 172.163239,295.247833 
	C181.424423,293.675507 186.661606,287.126190 192.569778,280.111877 
M285.999786,313.519226 
	C278.820801,305.947144 269.887756,301.764313 259.615845,301.107361 
	C241.365509,299.940094 225.792435,310.283356 219.740829,327.883972 
	C214.613922,342.795258 219.137894,361.468933 233.794373,372.256165 
	C252.917023,386.330444 281.135132,379.867493 291.655975,358.662628 
	C299.563721,342.724426 297.337128,327.858978 285.999786,313.519226 
z"/>
<path fill="#006600" opacity="1.000000" stroke="none" 
	d="
M513.000000,138.531586 
	C509.782654,142.393188 506.796997,146.049423 503.302246,149.127670 
	C494.654785,156.744553 478.227142,155.817535 468.375183,145.927490 
	C457.621399,135.132080 446.713409,124.379814 434.972321,114.700882 
	C409.067200,93.345650 379.620239,78.097328 347.837952,67.519836 
	C325.586273,60.114235 302.763550,55.040710 279.227905,54.001446 
	C266.939301,53.458817 254.596252,52.581055 242.341873,53.175640 
	C220.434021,54.238621 198.852570,57.837910 177.699493,63.909275 
	C157.806259,69.619041 138.806732,77.461937 120.602814,87.213669 
	C100.492172,97.986816 81.805649,110.855698 65.088089,126.444870 
	C57.213005,133.788406 49.903938,141.780670 41.686256,148.705048 
	C30.068638,158.494263 12.382827,155.281830 4.313639,142.586151 
	C3.529598,141.352600 2.570209,140.230499 1.346106,139.028320 
	C1.000000,132.645599 1.000000,126.291206 1.346063,119.440247 
	C3.639218,116.293381 5.233683,113.267273 7.591623,111.054848 
	C21.143328,98.339493 34.265869,85.061966 48.690304,73.406105 
	C70.299171,55.944778 94.138809,41.867226 119.649757,30.600187 
	C153.930374,15.459987 189.595200,6.028749 226.944656,2.910306 
	C228.339874,2.793816 229.650146,1.659829 231.000000,1.000002 
	C248.020889,1.000000 265.041779,1.000000 282.649780,1.376505 
	C284.604126,2.163454 285.945312,2.746355 287.342651,2.957626 
	C301.082153,5.034943 314.957764,6.428455 328.553528,9.199553 
	C370.168701,17.681608 408.523438,34.368633 443.917358,57.615578 
	C467.001709,72.777534 487.771881,90.880127 506.577728,111.157814 
	C508.870941,113.630501 510.866516,116.379211 513.000000,119.000000 
	C513.000000,125.354393 513.000000,131.708786 513.000000,138.531586 
z"/>
<path fill="#000000" opacity="1.000000" stroke="none" 
	d="
M230.531342,1.000002 
	C229.650146,1.659829 228.339874,2.793816 226.944656,2.910306 
	C189.595200,6.028749 153.930374,15.459987 119.649757,30.600187 
	C94.138809,41.867226 70.299171,55.944778 48.690304,73.406105 
	C34.265869,85.061966 21.143328,98.339493 7.591623,111.054848 
	C5.233683,113.267273 3.639218,116.293381 1.346063,118.971840 
	C1.000000,79.716164 1.000000,40.432320 1.000000,1.000000 
	C77.354164,1.000000 153.708420,1.000000 230.531342,1.000002 
z"/>
<path fill="#000000" opacity="1.000000" stroke="none" 
	d="
M513.000000,118.531342 
	C510.866516,116.379211 508.870941,113.630501 506.577728,111.157814 
	C487.771881,90.880127 467.001709,72.777534 443.917358,57.615578 
	C408.523438,34.368633 370.168701,17.681608 328.553528,9.199553 
	C314.957764,6.428455 301.082153,5.034943 287.342651,2.957626 
	C285.945312,2.746355 284.604126,2.163454 283.118439,1.376505 
	C359.570190,1.000000 436.140381,1.000000 513.000000,1.000000 
	C513.000000,40.020416 513.000000,79.041550 513.000000,118.531342 
z"/>
<path fill="#006600" opacity="1.000000" stroke="none" 
	d="
M349.692993,120.305283 
	C370.505402,128.744705 389.379608,139.864182 406.235077,154.003754 
	C417.001648,163.035507 427.167847,172.941559 436.597351,183.365540 
	C446.745850,194.584351 444.401337,207.962265 435.571381,217.658569 
	C426.395874,227.734344 409.589600,227.498398 399.554626,217.979935 
	C393.541901,212.276703 387.999054,206.071442 381.900940,200.466095 
	C360.869598,181.134186 336.346008,168.098984 309.021088,159.909424 
	C287.198090,153.368851 264.864014,151.597046 242.434052,153.213989 
	C207.949783,155.699936 176.122330,166.842346 148.270828,187.542938 
	C137.044327,195.887024 126.989861,205.905563 116.956367,215.728333 
	C107.919678,224.575180 97.278976,227.394608 85.560791,222.705780 
	C77.321846,219.409103 70.629669,208.256592 71.029427,198.445129 
	C71.370979,190.062256 76.089142,183.859650 81.455009,178.086334 
	C103.919579,153.916046 130.316040,135.122543 160.486130,121.902855 
	C181.365509,112.754089 203.110901,105.922386 225.960861,104.052620 
	C242.161240,102.726990 258.545807,101.368759 274.705811,102.355804 
	C300.456512,103.928627 325.511963,109.822960 349.692993,120.305283 
z"/>
<path fill="#006600" opacity="1.000000" stroke="none" 
	d="
M192.380219,280.412506 
	C186.661606,287.126190 181.424423,293.675507 172.163239,295.247833 
	C161.084915,297.128662 152.396423,293.406769 146.267029,284.524506 
	C140.421997,276.054260 139.368118,265.941010 145.519409,257.828430 
	C152.955246,248.021667 161.849854,239.036819 171.289764,231.094849 
	C189.176727,216.046188 210.264114,207.096191 233.322769,203.494293 
	C261.094452,199.156174 288.178741,201.824158 314.049652,213.530289 
	C330.742645,221.083572 345.695129,231.187378 358.064941,244.729767 
	C363.463989,250.640579 369.641083,256.121185 371.451660,264.710541 
	C373.699493,275.374023 369.148071,286.719421 359.814850,292.041199 
	C349.026886,298.192474 337.629364,296.785156 329.108093,288.681427 
	C321.090546,281.056702 313.463684,272.756226 304.460693,266.480713 
	C273.624634,244.986618 228.168823,248.247177 200.348206,273.144257 
	C197.754303,275.465576 195.162537,277.789276 192.380219,280.412506 
z"/>
<path fill="#006600" opacity="1.000000" stroke="none" 
	d="
M286.247437,313.779236 
	C297.337128,327.858978 299.563721,342.724426 291.655975,358.662628 
	C281.135132,379.867493 252.917023,386.330444 233.794373,372.256165 
	C219.137894,361.468933 214.613922,342.795258 219.740829,327.883972 
	C225.792435,310.283356 241.365509,299.940094 259.615845,301.107361 
	C269.887756,301.764313 278.820801,305.947144 286.247437,313.779236 
z"/>
</svg>